<?xml version="1.0" standalone="no"?>
<!DOCTYPE svg PUBLIC "-//W3C//DTD SVG 20010904//EN"
 "http://www.w3.org/TR/2001/REC-SVG-20010904/DTD/svg10.dtd">
<svg version="1.0" xmlns="http://www.w3.org/2000/svg"
 width="1024.000000pt" height="1024.000000pt" viewBox="0 0 1024.000000 1024.000000"
 preserveAspectRatio="xMidYMid meet">

<g transform="translate(0.000000,1024.000000) scale(0.100000,-0.100000)"
fill="#000000" stroke="none">
<path d="M1531 6493 c-10 -7 -22 -44 -31 -99 l-16 -88 -39 -14 c-22 -8 -84
-35 -137 -60 l-97 -45 -63 50 c-112 89 -89 96 -259 -73 -86 -86 -149 -156
-149 -167 0 -10 23 -52 52 -93 l51 -74 -41 -87 c-23 -49 -49 -110 -59 -138
l-18 -50 -90 -15 c-50 -8 -96 -19 -102 -23 -18 -12 -18 -420 0 -435 6 -6 52
-16 101 -24 l89 -14 23 -67 c13 -37 39 -102 60 -144 23 -49 33 -81 28 -89 -5
-7 -30 -40 -56 -74 -27 -34 -48 -67 -48 -73 0 -21 295 -307 317 -307 11 0 51
25 88 55 36 30 71 55 76 55 5 0 44 -17 87 -38 42 -21 103 -49 134 -61 l56 -23
12 -71 c20 -128 -4 -117 244 -117 246 0 227 -8 246 100 16 95 17 96 63 109 32
10 171 72 218 98 3 2 38 -21 77 -52 40 -31 81 -55 94 -55 17 0 63 39 166 143
78 79 142 150 142 158 -1 18 -16 43 -68 111 l-43 56 45 94 c25 51 51 114 58
140 13 53 11 51 118 68 41 7 81 17 88 22 9 8 12 64 12 219 0 155 -3 210 -12
216 -7 4 -53 15 -102 23 l-90 15 -26 76 c-15 41 -41 103 -58 137 -18 35 -32
66 -32 70 0 4 25 40 55 80 30 40 55 78 55 84 0 18 -292 308 -310 308 -9 0 -48
-27 -86 -60 -38 -33 -73 -60 -78 -60 -5 0 -41 17 -80 39 -39 21 -97 48 -128
61 -32 12 -59 29 -62 39 -2 9 -10 46 -16 83 -7 37 -17 72 -24 77 -17 14 -416
19 -435 4z m424 -448 c260 -72 472 -279 545 -535 29 -102 37 -271 17 -366 -84
-392 -421 -651 -821 -631 -207 10 -382 91 -527 244 -282 296 -290 725 -21
1042 106 125 294 226 492 265 49 9 256 -3 315 -19z"/>
<path d="M1566 5890 c-65 -20 -106 -83 -106 -163 0 -29 -5 -58 -12 -65 -8 -8
-47 -12 -110 -12 -113 0 -148 -12 -178 -63 -19 -30 -20 -52 -20 -346 0 -294 1
-317 20 -355 11 -23 36 -52 57 -66 l37 -25 465 -3 c308 -2 478 0 502 7 51 15
88 48 110 95 17 37 19 71 19 349 0 334 -1 343 -56 386 -23 18 -40 21 -129 21
-70 0 -106 4 -113 13 -5 6 -12 40 -14 75 -5 66 -22 99 -72 136 -25 19 -43 21
-199 23 -95 1 -185 -2 -201 -7z m343 -134 c7 -8 11 -34 9 -58 l-3 -43 -170 0
-170 0 -3 37 c-2 20 2 46 8 58 10 19 20 20 164 20 121 0 156 -3 165 -14z m-15
-441 c5 -16 10 -36 12 -42 3 -10 45 -13 169 -13 l165 0 0 -50 0 -50 -170 0
c-163 0 -170 -1 -170 -20 0 -11 -9 -29 -20 -40 -18 -18 -33 -20 -144 -20 -118
0 -126 1 -140 22 -9 12 -16 30 -16 40 0 16 -16 18 -167 20 l-168 3 -3 48 -3
47 170 0 171 0 0 29 c0 56 17 62 168 59 l137 -3 9 -30z"/>
<path d="M3340 5305 l0 -445 90 0 90 0 0 180 0 180 185 0 185 0 0 75 0 75
-185 0 -185 0 0 115 0 115 200 0 200 0 0 75 0 75 -290 0 -290 0 0 -445z"/>
<path d="M5900 5305 l0 -445 90 0 90 0 0 445 0 445 -90 0 -90 0 0 -445z"/>
<path d="M6830 5675 l0 -75 130 0 130 0 0 -370 0 -370 90 0 90 0 0 370 0 370
135 0 135 0 0 75 0 75 -355 0 -355 0 0 -75z"/>
<path d="M9000 5305 l0 -445 90 0 90 0 0 445 0 445 -90 0 -90 0 0 -445z"/>
<path d="M6410 5527 c-69 -16 -106 -36 -147 -79 -33 -34 -53 -75 -53 -109 0
-17 8 -19 84 -19 81 0 84 1 90 25 19 76 199 78 225 3 23 -66 14 -72 -124 -88
-181 -20 -241 -47 -276 -124 -44 -96 -6 -212 84 -258 91 -46 224 -33 297 29
l30 25 0 -36 0 -36 85 0 85 0 0 243 c0 138 -5 258 -11 280 -14 50 -64 106
-116 129 -55 24 -181 32 -253 15z m188 -474 c-23 -47 -63 -68 -128 -68 -70 0
-100 21 -100 70 0 62 22 74 195 112 l40 9 3 -48 c2 -27 -3 -60 -10 -75z"/>
<path d="M7710 5526 c-93 -24 -153 -78 -197 -171 -24 -52 -27 -72 -27 -155 0
-131 20 -188 94 -262 72 -72 133 -92 255 -86 194 10 306 132 307 335 0 144
-46 244 -138 303 -76 48 -196 63 -294 36z m177 -156 c52 -31 68 -72 68 -175 0
-72 -4 -97 -20 -124 -31 -53 -69 -76 -124 -76 -94 0 -143 68 -142 199 0 102
29 163 86 186 36 15 99 11 132 -10z"/>
<path d="M8455 5527 c-65 -22 -99 -43 -139 -88 -57 -62 -79 -120 -84 -220 -12
-231 111 -369 328 -369 140 0 237 55 292 167 31 64 33 73 33 178 0 98 -3 116
-26 165 -32 67 -85 121 -148 151 -58 27 -196 36 -256 16z m180 -157 c47 -29
70 -89 70 -180 -1 -127 -51 -195 -145 -195 -56 0 -94 23 -125 76 -31 52 -28
189 4 246 40 70 129 95 196 53z"/>
<path d="M9458 5527 c-112 -32 -175 -111 -166 -208 9 -92 72 -145 218 -184
128 -35 164 -53 168 -86 5 -42 -37 -69 -107 -69 -69 0 -102 16 -121 57 -15 33
-15 33 -92 33 -74 0 -78 -1 -78 -22 1 -40 36 -103 76 -137 57 -46 128 -64 238
-59 178 8 266 90 254 234 -8 94 -65 135 -258 185 -78 21 -130 51 -130 77 0 6
9 20 19 33 17 21 28 24 84 24 55 0 69 -4 91 -24 14 -14 26 -30 26 -38 0 -10
20 -13 81 -13 l82 0 -6 37 c-15 91 -122 162 -254 169 -47 2 -97 -1 -125 -9z"/>
<path d="M4275 5516 c-17 -7 -45 -30 -63 -50 l-32 -37 0 46 0 45 -90 0 -90 0
0 -330 0 -330 90 0 90 0 0 170 c0 93 5 192 11 219 18 85 95 133 184 117 l35
-7 0 86 0 85 -52 0 c-29 -1 -67 -7 -83 -14z"/>
<path d="M4630 5513 c-27 -10 -65 -37 -97 -68 -70 -71 -97 -156 -91 -283 8
-154 79 -257 203 -297 83 -26 212 -18 281 18 72 36 161 145 137 167 -4 4 -40
10 -80 12 -67 5 -74 4 -95 -20 -48 -52 -134 -67 -198 -34 -37 18 -64 58 -75
110 l-7 32 238 0 237 0 -7 68 c-8 89 -20 128 -55 184 -33 52 -85 94 -138 114
-52 18 -197 16 -253 -3z m229 -147 c27 -26 54 -89 43 -100 -3 -3 -68 -6 -144
-6 -154 0 -154 0 -119 69 26 51 71 73 139 68 40 -3 59 -10 81 -31z"/>
<path d="M5365 5517 c-129 -51 -195 -149 -203 -304 -12 -222 113 -363 322
-363 94 0 162 21 214 66 47 40 99 121 86 133 -5 5 -41 11 -80 14 -68 5 -73 4
-95 -20 -49 -53 -136 -68 -199 -35 -34 19 -62 62 -74 115 l-6 27 235 0 235 0
0 43 c-1 150 -82 282 -199 322 -53 18 -192 19 -236 2z m211 -148 c30 -28 39
-43 48 -81 l6 -28 -145 0 c-124 0 -145 2 -145 15 0 27 28 71 62 100 29 24 38
27 90 23 44 -3 64 -10 84 -29z"/>
</g>
</svg>
