<?xml version="1.0" standalone="no"?>
<!DOCTYPE svg PUBLIC "-//W3C//DTD SVG 20010904//EN"
 "http://www.w3.org/TR/2001/REC-SVG-20010904/DTD/svg10.dtd">
<svg version="1.0" xmlns="http://www.w3.org/2000/svg"
 width="1024.000000pt" height="1024.000000pt" viewBox="0 0 1024.000000 1024.000000"
 preserveAspectRatio="xMidYMid meet">

<g transform="translate(0.000000,1024.000000) scale(0.100000,-0.100000)"
fill="#000000" stroke="none">
<path d="M5886 8985 c-169 -27 -330 -76 -454 -137 -61 -30 -106 -62 -167 -119
-67 -64 -98 -85 -166 -114 -299 -128 -475 -289 -539 -494 -25 -79 -27 -214 -4
-292 37 -125 117 -227 195 -250 27 -9 41 -19 43 -33 23 -127 61 -251 105 -342
33 -68 51 -120 51 -143 0 -53 -23 -133 -73 -257 -59 -147 -71 -201 -57 -252
19 -72 103 -127 223 -147 35 -6 41 -11 64 -63 14 -31 60 -129 103 -218 93
-193 152 -264 258 -316 65 -32 70 -33 197 -33 119 1 194 12 270 41 19 8 21
-29 3 -44 -7 -5 -96 -53 -197 -106 -278 -145 -394 -238 -498 -398 -56 -86 -90
-169 -143 -338 -40 -129 -219 -665 -370 -1103 -49 -142 -70 -216 -66 -233 4
-14 32 -43 69 -70 62 -46 78 -64 57 -64 -6 0 -35 -24 -63 -54 l-52 -54 -70 15
c-169 35 -545 -48 -715 -158 -34 -22 -63 -39 -65 -37 -1 2 -87 282 -190 623
-235 780 -259 854 -278 892 -22 41 -70 80 -115 93 -51 14 -2393 14 -2444 0
-49 -14 -95 -61 -109 -113 -17 -63 -22 -44 297 -1077 384 -1240 376 -1214 432
-1287 l24 -33 -375 0 c-254 0 -384 -4 -400 -11 -51 -23 -63 -104 -22 -144 l24
-25 4404 0 4404 0 24 26 c35 37 33 98 -4 130 l-28 24 -268 0 -268 0 -6 263
c-4 144 -7 344 -7 443 l0 181 59 7 c76 9 143 43 155 79 12 32 -5 411 -35 794
-69 898 -166 1231 -440 1503 -151 149 -252 208 -844 490 -241 115 -392 193
-414 213 -78 74 -151 222 -190 385 l-19 78 48 97 c157 319 265 860 231 1154
-55 467 -339 819 -782 967 -164 55 -256 68 -499 72 -153 2 -241 -1 -304 -11z
m22 -1135 c36 -22 41 -32 71 -135 45 -156 217 -348 390 -435 83 -42 148 -7
180 97 78 254 359 308 462 89 24 -50 29 -74 29 -136 0 -178 -91 -354 -219
-427 -57 -33 -71 -49 -71 -85 0 -66 76 -97 156 -63 35 14 37 14 67 -11 26 -22
37 -45 62 -138 54 -194 137 -360 231 -465 l48 -54 -28 -51 c-92 -165 -222
-313 -376 -426 -106 -77 -280 -163 -384 -190 -102 -26 -209 -26 -256 -1 -65
35 -89 77 -101 177 -10 88 -33 219 -44 260 -6 18 7 27 100 72 179 87 223 130
208 203 -8 40 -44 63 -87 56 -18 -3 -77 -31 -131 -62 -259 -149 -413 -208
-545 -209 -173 -2 -218 50 -385 436 -37 86 -75 164 -85 173 -9 8 -52 22 -95
30 -92 18 -129 34 -133 58 -2 9 17 70 42 135 73 186 80 216 80 332 1 103 0
107 -41 195 -48 103 -78 205 -88 297 l-7 63 179 0 c151 1 190 4 255 22 108 31
206 73 338 147 63 36 122 65 130 65 8 1 30 -8 48 -19z m1845 -3267 c8 -18 8
-43 -2 -96 -32 -188 -112 -721 -131 -877 -23 -197 -30 -220 -61 -220 -40 0
-59 28 -59 84 0 101 80 673 141 1001 14 79 25 115 39 127 25 21 58 12 73 -19z
m-2279 -155 c13 -19 16 -63 16 -273 0 -137 5 -358 10 -490 5 -132 12 -330 16
-439 l7 -199 -43 7 c-55 9 -213 71 -447 175 -100 44 -187 81 -193 81 -15 0
-13 6 23 53 17 24 37 51 42 60 9 13 26 8 130 -40 160 -74 332 -143 357 -143
20 0 21 4 15 103 -3 56 -11 314 -18 574 -14 529 -12 553 41 553 18 0 34 -8 44
-22z m2856 -1103 c123 -14 317 -48 326 -58 6 -6 -66 -408 -91 -502 -14 -56
-49 -148 -79 -210 -88 -180 -200 -274 -371 -310 -157 -33 -566 -14 -1840 85
-460 36 -475 38 -475 56 0 27 -61 84 -103 95 -28 7 -263 13 -701 18 l-658 6
67 73 c79 85 114 105 210 121 90 16 130 35 145 71 27 65 -19 100 -133 100 -98
0 -159 -20 -244 -79 -87 -61 -164 -147 -205 -228 l-31 -63 -53 0 -52 0 -14 41
c-14 41 -13 41 22 77 19 21 56 65 82 99 66 87 143 145 286 215 155 77 187 113
141 159 -26 26 -75 21 -196 -20 -116 -40 -223 -110 -325 -212 l-88 -88 -34
107 -35 107 36 32 c44 40 171 107 243 127 106 30 263 56 334 56 133 0 314 -59
651 -211 200 -90 285 -119 348 -119 27 0 171 11 320 25 274 25 588 52 1147
102 312 27 762 38 891 21 48 -7 61 -5 80 11 33 26 30 87 -5 117 -26 23 -103
44 -158 44 -29 0 -30 2 -24 31 3 17 6 54 6 82 l0 50 218 -6 c119 -3 282 -13
362 -22z"/>
</g>
</svg>
